# xmcd
#
# Track frame offsets: 
#        150
#        11383
#        26561
#        34003
#        45467
#        56399
#        67689
#        81099
#        88237
#        101088
#        111521
#        120674
#        133737
#        150838
#
# Disc length: 2218 seconds
#
# Revision: 1
# Processed by: cddbd v1.5.1PL2 Copyright (c) Steve Scherf et al.
# Submitted via: ExactAudioCopy v0.90b4
#
DISCID=a608a80e
DTITLE=Gösta Linderholm - Nu är det Jazz jul igen!
DYEAR=2002
DGENRE=Jazz
TTITLE0=Farfar frustar i sin jultrombon
TTITLE1=Sjömansjul på Hawah
TTITLE2=Jag såg mamma kyssa tomten
TTITLE3=Rudolf med röda mulen
TTITLE4=Staffansvisan
TTITLE5=Tomtarnas julnatt
TTITLE6=Spring, Rudolf spring
TTITLE7=Bella notte
TTITLE8=När det lider mot jul
TTITLE9=Domaredansen
TTITLE10=Bjällerklang
TTITLE11=Vi äro musikanter
TTITLE12=Ser du stjärnan i det blå
TTITLE13=White Christmas
EXTD=YEAR: 2002
EXTT0=
EXTT1=
EXTT2=
EXTT3=
EXTT4=
EXTT5=
EXTT6=
EXTT7=
EXTT8=
EXTT9=
EXTT10=
EXTT11=
EXTT12=
EXTT13=
PLAYORDER=
